<?xml version="1.0" encoding="UTF-8" standalone="no"?>
<!-- Created with Inkscape (http://www.inkscape.org/) -->

<svg
   width="205.82129"
   height="205.82135"
   viewBox="0 0 205.82129 205.82135"
   version="1.1"
   id="svg1"
   xmlns="http://www.w3.org/2000/svg"
   xmlns:svg="http://www.w3.org/2000/svg">
  <defs
     id="defs1" />
  <g
     id="layer1"
     transform="translate(-787.6156,-323.16412)">
    <rect
       style="fill:#80e5ff;stroke:none;stroke-width:1.5;stroke-miterlimit:10;stroke-dasharray:none"
       id="rect3-0-1"
       width="201.82132"
       height="201.82132"
       x="789.6156"
       y="325.16412"
       rx="36.637978" />
    <path
       id="rect5-9"
       style="fill:#00ccff;fill-opacity:1;stroke:none;stroke-width:0.886034;stroke-miterlimit:10;stroke-dasharray:none;stroke-opacity:1"
       d="m 826.7943,325.33313 c -0.126,0.3498 -0.1953,0.72693 -0.1953,1.1211 0,1.82233 1.4667,3.28906 3.2891,3.28906 H 860.39 c 1.8224,0 3.291,-1.46673 3.291,-3.28906 0,-0.39417 -0.0691,-0.7713 -0.1953,-1.1211 z m 40.8477,0 c -0.126,0.3498 -0.1953,0.72693 -0.1953,1.1211 0,1.82233 1.4667,3.28906 3.289,3.28906 h 5.8672 c 1.8223,0 3.2891,-1.46673 3.2891,-3.28906 0,-0.39417 -0.0693,-0.7713 -0.1953,-1.1211 z m 16.2109,0 c -0.126,0.3498 -0.1953,0.72693 -0.1953,1.1211 0,1.82233 1.4667,3.28906 3.2891,3.28906 h 13.3222 c 1.8224,0 3.2891,-1.46673 3.2891,-3.28906 0,-0.39417 -0.0693,-0.7713 -0.1953,-1.1211 z m 23.666,0 c -0.126,0.3498 -0.1953,0.72693 -0.1953,1.1211 0,1.82233 1.4668,3.28906 3.2891,3.28906 h 23.8418 c 1.8223,0 3.289,-1.46673 3.289,-3.28906 0,-0.39417 -0.0693,-0.7713 -0.1953,-1.1211 z m 34.1856,0 c -0.126,0.3498 -0.1953,0.72693 -0.1953,1.1211 0,1.82233 1.4667,3.28906 3.289,3.28906 h 5.8672 c 1.8223,0 3.291,-1.46673 3.291,-3.28906 0,-0.39417 -0.0691,-0.7713 -0.1953,-1.1211 z m 16.1699,0.125 c -0.0988,0.31386 -0.1523,0.64884 -0.1523,0.9961 0,1.82233 1.4667,3.28906 3.289,3.28906 h 11.2813 c -4.3448,-2.35482 -9.2241,-3.8574 -14.418,-4.28516 z m -135.1797,0.043 c -4.0856,0.39037 -7.9722,1.44629 -11.5488,3.0586 0.6023,0.7238 1.5116,1.18359 2.5312,1.18359 h 5.8672 c 1.8224,0 3.2891,-1.46673 3.2891,-3.28906 0,-0.33144 -0.0483,-0.6518 -0.1387,-0.95313 z m -19.7598,8.16797 c -2.3366,1.92518 -4.4308,4.13526 -6.2265,6.57813 h 22.8359 c 1.8224,0 3.2891,-1.46674 3.2891,-3.28907 0,-1.82233 -1.4667,-3.28906 -3.2891,-3.28906 z m 26.9532,0 c -1.8224,0 -3.2891,1.46673 -3.2891,3.28906 0,1.82233 1.4667,3.28907 3.2891,3.28907 h 5.8691 c 1.8223,0 3.2891,-1.46674 3.2891,-3.28907 0,-1.82233 -1.4668,-3.28906 -3.2891,-3.28906 z m 16.2129,0 c -1.8224,0 -3.2891,1.46673 -3.2891,3.28906 0,1.82233 1.4667,3.28907 3.2891,3.28907 h 13.3222 c 1.8224,0 3.2891,-1.46674 3.2891,-3.28907 0,-1.82233 -1.4667,-3.28906 -3.2891,-3.28906 z m 23.666,0 c -1.8224,0 -3.2891,1.46673 -3.2891,3.28906 0,1.82233 1.4667,3.28907 3.2891,3.28907 h 23.8418 c 1.8223,0 3.289,-1.46674 3.289,-3.28907 0,-1.82233 -1.4667,-3.28906 -3.289,-3.28906 z m 34.1855,0 c -1.8223,0 -3.289,1.46673 -3.289,3.28906 0,1.82233 1.4667,3.28907 3.289,3.28907 h 5.8672 c 1.8223,0 3.2891,-1.46674 3.2891,-3.28907 0,-1.82233 -1.4668,-3.28906 -3.2891,-3.28906 z m 16.2129,0 c -1.8223,0 -3.291,1.46673 -3.291,3.28906 0,1.82233 1.4687,3.28907 3.291,3.28907 h 30.5 c 1.8223,0 3.291,-1.46674 3.291,-3.28907 0,-1.82233 -1.4687,-3.28906 -3.291,-3.28906 z m 40.8457,0 c -1.8223,0 -3.289,1.46673 -3.289,3.28906 0,1.82233 1.4667,3.28907 3.289,3.28907 h 5.8672 c 1.8223,0 3.2891,-1.46674 3.2891,-3.28907 0,-1.82233 -1.4668,-3.28906 -3.2891,-3.28906 z m 16.211,0 c -1.8224,0 -3.2891,1.46673 -3.2891,3.28906 0,1.82233 1.4667,3.28907 3.2891,3.28907 h 7.1211 c -1.7958,-2.44287 -3.888,-4.65295 -6.2247,-6.57813 z m -183.0293,10.50391 c -1.1509,2.07606 -2.1052,4.27697 -2.8399,6.57812 h 11.9785 c 1.8224,0 3.291,-1.46673 3.291,-3.28906 0,-1.82233 -1.4686,-3.28906 -3.291,-3.28906 z m 19.4843,0 c -1.8223,0 -3.289,1.46673 -3.289,3.28906 0,1.82233 1.4667,3.28906 3.289,3.28906 h 5.8672 c 1.8224,0 3.2891,-1.46673 3.2891,-3.28906 0,-1.82233 -1.4667,-3.28906 -3.2891,-3.28906 z m 16.211,0 c -1.8224,0 -3.2891,1.46673 -3.2891,3.28906 0,1.82233 1.4667,3.28906 3.2891,3.28906 h 13.3222 c 1.8224,0 3.2891,-1.46673 3.2891,-3.28906 0,-1.82233 -1.4667,-3.28906 -3.2891,-3.28906 z m 23.666,0 c -1.8223,0 -3.2891,1.46673 -3.2891,3.28906 0,1.82233 1.4668,3.28906 3.2891,3.28906 h 23.8418 c 1.8223,0 3.289,-1.46673 3.289,-3.28906 0,-1.82233 -1.4667,-3.28906 -3.289,-3.28906 z m 34.1855,0 c -1.8223,0 -3.289,1.46673 -3.289,3.28906 0,1.82233 1.4667,3.28906 3.289,3.28906 h 5.8692 c 1.8223,0 3.289,-1.46673 3.289,-3.28906 0,-1.82233 -1.4667,-3.28906 -3.289,-3.28906 z m 16.2129,0 c -1.8223,0 -3.289,1.46673 -3.289,3.28906 0,1.82233 1.4667,3.28906 3.289,3.28906 h 30.502 c 1.8223,0 3.289,-1.46673 3.289,-3.28906 0,-1.82233 -1.4667,-3.28906 -3.289,-3.28906 z m 40.8457,0 c -1.8223,0 -3.289,1.46673 -3.289,3.28906 0,1.82233 1.4667,3.28906 3.289,3.28906 h 5.8672 c 1.8223,0 3.291,-1.46673 3.291,-3.28906 0,-1.82233 -1.4687,-3.28906 -3.291,-3.28906 z m 16.2129,0 c -1.8223,0 -3.289,1.46673 -3.289,3.28906 0,1.82233 1.4667,3.28906 3.289,3.28906 h 13.3203 c 1.8224,0 3.2891,-1.46673 3.2891,-3.28906 0,-1.82233 -1.4667,-3.28906 -3.2891,-3.28906 z m 23.666,0 c -1.8223,0 -3.291,1.46673 -3.291,3.28906 0,1.82233 1.4687,3.28906 3.291,3.28906 h 5.0235 c -0.7347,-2.30115 -1.689,-4.50206 -2.8399,-6.57812 z m -194.3418,10.5039 c -0.4256,2.12337 -0.669,4.31325 -0.7129,6.55469 0.1273,0.0148 0.2573,0.0234 0.3887,0.0234 h 5.8672 c 1.8223,0 3.2891,-1.46674 3.2891,-3.28906 0,-1.82233 -1.4668,-3.28907 -3.2891,-3.28907 z m 15.8887,0 c -1.8223,0 -3.291,1.46674 -3.291,3.28907 0,1.82232 1.4687,3.28906 3.291,3.28906 h 13.3203 c 1.8224,0 3.2891,-1.46674 3.2891,-3.28906 0,-1.82233 -1.4667,-3.28907 -3.2891,-3.28907 z m 23.6641,0 c -1.8224,0 -3.2891,1.46674 -3.2891,3.28907 0,1.82232 1.4667,3.28906 3.2891,3.28906 h 23.8418 c 1.8223,0 3.289,-1.46674 3.289,-3.28906 0,-1.82233 -1.4667,-3.28907 -3.289,-3.28907 z m 34.1855,0 c -1.8223,0 -3.289,1.46674 -3.289,3.28907 0,1.82232 1.4667,3.28906 3.289,3.28906 h 5.8692 c 1.8223,0 3.289,-1.46674 3.289,-3.28906 0,-1.82233 -1.4667,-3.28907 -3.289,-3.28907 z m 16.2129,0 c -1.8223,0 -3.2891,1.46674 -3.2891,3.28907 0,1.82232 1.4668,3.28906 3.2891,3.28906 h 30.502 c 1.8223,0 3.289,-1.46674 3.289,-3.28906 0,-1.82233 -1.4667,-3.28907 -3.289,-3.28907 z m 40.8457,0 c -1.8223,0 -3.2891,1.46674 -3.289,3.28907 0,1.82232 1.4667,3.28906 3.289,3.28906 h 5.8692 c 1.8223,0 3.289,-1.46674 3.289,-3.28906 0,-1.82233 -1.4667,-3.28907 -3.289,-3.28907 z m 16.2129,0 c -1.8223,0 -3.2891,1.46674 -3.2891,3.28907 0,1.82232 1.4668,3.28906 3.2891,3.28906 h 13.3203 c 1.8223,0 3.291,-1.46674 3.291,-3.28906 0,-1.82233 -1.4687,-3.28907 -3.291,-3.28907 z m 23.666,0 c -1.8223,0 -3.289,1.46674 -3.289,3.28907 0,1.82232 1.4667,3.28906 3.289,3.28906 h 23.8399 c 1.8223,0 3.291,-1.46674 3.291,-3.28906 0,-1.82233 -1.4687,-3.28907 -3.291,-3.28907 z m -165.3066,10.50391 c -1.8224,0 -3.291,1.46673 -3.291,3.28906 0,1.82233 1.4686,3.28906 3.291,3.28906 h 23.8398 c 1.8224,0 3.2891,-1.46673 3.2891,-3.28906 0,-1.82233 -1.4667,-3.28906 -3.2891,-3.28906 z m 34.1836,0 c -1.8224,0 -3.2891,1.46673 -3.2891,3.28906 0,1.82233 1.4667,3.28906 3.2891,3.28906 h 5.8691 c 1.8223,0 3.2891,-1.46673 3.2891,-3.28906 0,-1.82233 -1.4668,-3.28906 -3.2891,-3.28906 z m 16.2129,0 c -1.8224,0 -3.2891,1.46673 -3.2891,3.28906 0,1.82233 1.4667,3.28906 3.2891,3.28906 h 30.5019 c 1.8223,0 3.2891,-1.46673 3.2891,-3.28906 0,-1.82233 -1.4668,-3.28906 -3.2891,-3.28906 z m 40.8457,0 c -1.8224,0 -3.2891,1.46673 -3.2891,3.28906 0,1.82233 1.4667,3.28906 3.2891,3.28906 h 5.8691 c 1.8223,0 3.2891,-1.46673 3.2891,-3.28906 0,-1.82233 -1.4668,-3.28906 -3.2891,-3.28906 z m 16.2129,0 c -1.8224,0 -3.2891,1.46673 -3.2891,3.28906 0,1.82233 1.4667,3.28906 3.2891,3.28906 h 13.3203 c 1.8223,0 3.291,-1.46673 3.291,-3.28906 0,-1.82233 -1.4687,-3.28906 -3.291,-3.28906 z m 23.666,0 c -1.8224,0 -3.2891,1.46673 -3.2891,3.28906 0,1.82233 1.4667,3.28906 3.2891,3.28906 h 23.8398 c 1.8223,0 3.291,-1.46673 3.291,-3.28906 0,-1.82233 -1.4687,-3.28906 -3.291,-3.28906 z m 34.1855,0 c -1.8223,0 -3.289,1.46673 -3.289,3.28906 0,1.82233 1.4667,3.28906 3.289,3.28906 h 5.8672 c 1.8223,0 3.2891,-1.46673 3.2891,-3.28906 0,-1.82233 -1.4668,-3.28906 -3.2891,-3.28906 z m 16.211,0 c -1.8224,0 -3.2891,1.46673 -3.2891,3.28906 0,1.82233 1.4667,3.28906 3.2891,3.28906 h 14.2148 v -6.57812 z M 789.6166,375.6847 v 6.58007 h 13.3203 c 1.8223,0 3.2891,-1.46868 3.2891,-3.29101 0,-1.82233 -1.4668,-3.28906 -3.2891,-3.28906 z m 23.664,0 c -1.8222,0 -3.289,1.46673 -3.289,3.28906 0,1.82233 1.4668,3.29101 3.289,3.29101 h 5.8672 c 1.8224,0 3.2891,-1.46868 3.2891,-3.29101 0,-1.82233 -1.4667,-3.28906 -3.2891,-3.28906 z m 16.211,0 c -1.8223,0 -3.2891,1.46673 -3.2891,3.28906 0,1.82233 1.4668,3.29101 3.2891,3.29101 h 30.5019 c 1.8224,0 3.2911,-1.46868 3.2911,-3.29101 0,-1.82233 -1.4687,-3.28906 -3.2911,-3.28906 z m 40.8476,0 c -1.8223,0 -3.289,1.46673 -3.289,3.28906 0,1.82233 1.4667,3.29101 3.289,3.29101 h 5.8672 c 1.8224,0 3.2891,-1.46868 3.2891,-3.29101 0,-1.82233 -1.4667,-3.28906 -3.2891,-3.28906 z m 16.211,0 c -1.8223,0 -3.2891,1.46673 -3.2891,3.28906 0,1.82233 1.4668,3.29101 3.2891,3.29101 h 13.3222 c 1.8224,0 3.2891,-1.46868 3.2891,-3.29101 0,-1.82233 -1.4667,-3.28906 -3.2891,-3.28906 z m 23.666,0 c -1.8223,0 -3.2891,1.46673 -3.2891,3.28906 0,1.82233 1.4668,3.29101 3.2891,3.29101 h 23.8418 c 1.8223,0 3.2891,-1.46868 3.2891,-3.29101 0,-1.82233 -1.4668,-3.28906 -3.2891,-3.28906 z m 34.1855,0 c -1.8223,0 -3.289,1.46673 -3.289,3.28906 0,1.82233 1.4667,3.29101 3.289,3.29101 h 5.8672 c 1.8224,0 3.291,-1.46868 3.291,-3.29101 0,-1.82233 -1.4686,-3.28906 -3.291,-3.28906 z m 16.2129,0 c -1.8223,0 -3.289,1.46673 -3.289,3.28906 0,1.82233 1.4667,3.29101 3.289,3.29101 h 30.502 c 0.1081,0 0.2149,-0.006 0.3203,-0.0156 v -6.54883 c -0.1054,-0.0101 -0.2122,-0.0156 -0.3203,-0.0156 z m -170.998,10.5039 v 6.58008 h 29.5312 c 1.8224,0 3.2891,-1.46673 3.2891,-3.28906 0,-1.82233 -1.4667,-3.29102 -3.2891,-3.29102 z m 39.875,0 c -1.8223,0 -3.2891,1.46869 -3.2891,3.29102 0,1.82233 1.4668,3.28906 3.2891,3.28906 h 5.8691 c 1.8224,0 3.2891,-1.46673 3.2891,-3.28906 0,-1.82233 -1.4667,-3.29102 -3.2891,-3.29102 z m 16.2129,0 c -1.8224,0 -3.2891,1.46869 -3.2891,3.29102 0,1.82233 1.4667,3.28906 3.2891,3.28906 h 13.3222 c 1.8224,0 3.2891,-1.46673 3.2891,-3.28906 0,-1.82233 -1.4667,-3.29102 -3.2891,-3.29102 z m 23.666,0 c -1.8223,0 -3.2891,1.46869 -3.2891,3.29102 0,1.82233 1.4668,3.28906 3.2891,3.28906 h 23.8418 c 1.8223,0 3.2891,-1.46673 3.2891,-3.28906 0,-1.82233 -1.4668,-3.29102 -3.2891,-3.29102 z m 34.1855,0 c -1.8223,0 -3.289,1.46869 -3.289,3.29102 0,1.82233 1.4667,3.28906 3.289,3.28906 h 5.8672 c 1.8224,0 3.2891,-1.46673 3.2891,-3.28906 0,-1.82233 -1.4667,-3.29102 -3.2891,-3.29102 z m 16.2129,0 c -1.8223,0 -3.291,1.46869 -3.291,3.29102 0,1.82233 1.4687,3.28906 3.291,3.28906 h 30.5 c 1.8224,0 3.291,-1.46673 3.291,-3.28906 0,-1.82233 -1.4686,-3.29102 -3.291,-3.29102 z m 40.8457,0 c -1.8223,0 -3.289,1.46869 -3.289,3.29102 0,1.82233 1.4667,3.28906 3.289,3.28906 h 5.8672 c 1.8224,0 3.2891,-1.46673 3.2891,-3.28906 0,-1.82233 -1.4667,-3.29102 -3.2891,-3.29102 z m 16.211,0 c -1.8224,0 -3.2891,1.46869 -3.2891,3.29102 0,1.82233 1.4667,3.28906 3.2891,3.28906 h 13.3222 c 0.4581,0 0.8936,-0.0921 1.2891,-0.25977 v -6.06054 c -0.3955,-0.16787 -0.831,-0.25977 -1.2891,-0.25977 z m -187.209,10.50586 v 6.57813 h 13.3203 c 1.8223,0 3.2891,-1.46674 3.2891,-3.28907 0,-1.82232 -1.4668,-3.28906 -3.2891,-3.28906 z m 23.664,0 c -1.8222,0 -3.289,1.46674 -3.289,3.28906 0,1.82233 1.4668,3.28907 3.289,3.28907 h 5.8672 c 1.8224,0 3.2891,-1.46674 3.2891,-3.28907 0,-1.82232 -1.4667,-3.28906 -3.2891,-3.28906 z m 16.211,0 c -1.8223,0 -3.2891,1.46674 -3.2891,3.28906 0,1.82233 1.4668,3.28907 3.2891,3.28907 h 13.3223 c 1.8223,0 3.289,-1.46674 3.289,-3.28907 0,-1.82232 -1.4667,-3.28906 -3.289,-3.28906 z m 23.666,0 c -1.8223,0 -3.2891,1.46674 -3.2891,3.28906 0,1.82233 1.4668,3.28907 3.2891,3.28907 h 23.8418 c 1.8223,0 3.2891,-1.46674 3.2891,-3.28907 0,-1.82232 -1.4668,-3.28906 -3.2891,-3.28906 z m 34.1856,0 c -1.8225,0 -3.2891,1.46674 -3.2891,3.28906 0,1.82233 1.4667,3.28907 3.2891,3.28907 h 5.8691 c 1.8223,0 3.2891,-1.46674 3.2891,-3.28907 0,-1.82232 -1.4668,-3.28906 -3.2891,-3.28906 z m 16.2128,0 c -1.8223,0 -3.289,1.46674 -3.289,3.28906 0,1.82233 1.4667,3.28907 3.289,3.28907 h 30.502 c 1.8223,0 3.2891,-1.46674 3.2891,-3.28907 0,-1.82232 -1.4668,-3.28906 -3.2891,-3.28906 z m 40.8457,0 c -1.8223,0 -3.289,1.46674 -3.289,3.28906 0,1.82233 1.4667,3.28907 3.289,3.28907 h 5.8672 c 1.8224,0 3.291,-1.46674 3.291,-3.28907 0,-1.82232 -1.4686,-3.28906 -3.291,-3.28906 z m 16.2129,0 c -1.8223,0 -3.289,1.46674 -3.289,3.28906 0,1.82233 1.4667,3.28907 3.289,3.28907 h 13.3203 c 1.8224,0 3.2911,-1.46674 3.2911,-3.28907 0,-1.82232 -1.4687,-3.28906 -3.2911,-3.28906 z m 23.666,0 c -1.8222,0 -3.289,1.46674 -3.289,3.28906 0,1.82233 1.4667,3.28907 3.289,3.28907 h 7.1563 v -6.57813 z m -194.664,10.50391 v 6.57812 h 5.8652 c 1.8224,0 3.2891,-1.46673 3.2891,-3.28906 0,-1.82233 -1.4667,-3.28906 -3.2891,-3.28906 z m 16.2109,0 c -1.8223,0 -3.291,1.46673 -3.291,3.28906 0,1.82233 1.4687,3.28906 3.291,3.28906 h 13.3203 c 1.8224,0 3.2891,-1.46673 3.2891,-3.28906 0,-1.82233 -1.4667,-3.28906 -3.2891,-3.28906 z m 23.6641,0 c -1.8223,0 -3.2891,1.46673 -3.2891,3.28906 0,1.82233 1.4668,3.28906 3.2891,3.28906 h 23.8418 c 1.8223,0 3.289,-1.46673 3.289,-3.28906 0,-1.82233 -1.4667,-3.28906 -3.289,-3.28906 z m 34.1855,0 c -1.8223,0 -3.289,1.46673 -3.289,3.28906 0,1.82233 1.4667,3.28906 3.289,3.28906 h 5.8692 c 1.8223,0 3.289,-1.46673 3.289,-3.28906 0,-1.82233 -1.4667,-3.28906 -3.289,-3.28906 z m 16.2129,0 c -1.8223,0 -3.289,1.46673 -3.289,3.28906 0,1.82233 1.4667,3.28906 3.289,3.28906 h 30.502 c 1.8223,0 3.289,-1.46673 3.289,-3.28906 0,-1.82233 -1.4667,-3.28906 -3.289,-3.28906 z m 40.8457,0 c -1.8223,0 -3.289,1.46673 -3.289,3.28906 0,1.82233 1.4667,3.28906 3.289,3.28906 h 5.8692 c 1.8223,0 3.289,-1.46673 3.289,-3.28906 0,-1.82233 -1.4667,-3.28906 -3.289,-3.28906 z m 16.2129,0 c -1.8223,0 -3.289,1.46673 -3.289,3.28906 0,1.82233 1.4667,3.28906 3.289,3.28906 h 13.3203 c 1.8224,0 3.291,-1.46673 3.291,-3.28906 0,-1.82233 -1.4686,-3.28906 -3.291,-3.28906 z m 23.666,0 c -1.8223,0 -3.289,1.46673 -3.289,3.28906 0,1.82233 1.4667,3.28906 3.289,3.28906 h 23.8399 c 1.8223,0 3.291,-1.46673 3.291,-3.28906 0,-1.82233 -1.4687,-3.28906 -3.291,-3.28906 z m -165.3066,10.5039 c -1.8223,0 -3.291,1.46674 -3.291,3.28907 0,1.82232 1.4687,3.28906 3.291,3.28906 h 23.8398 c 1.8224,0 3.2891,-1.46674 3.2891,-3.28906 0,-1.82233 -1.4667,-3.28907 -3.2891,-3.28907 z m 34.1836,0 c -1.8223,0 -3.2891,1.46674 -3.2891,3.28907 0,1.82232 1.4668,3.28906 3.2891,3.28906 h 5.8691 c 1.8224,0 3.2891,-1.46674 3.2891,-3.28906 0,-1.82233 -1.4667,-3.28907 -3.2891,-3.28907 z m 16.2129,0 c -1.8224,0 -3.2891,1.46674 -3.2891,3.28907 0,1.82232 1.4667,3.28906 3.2891,3.28906 h 30.5019 c 1.8224,0 3.2891,-1.46674 3.2891,-3.28906 0,-1.82233 -1.4667,-3.28907 -3.2891,-3.28907 z m 40.8457,0 c -1.8223,0 -3.2891,1.46674 -3.2891,3.28907 0,1.82232 1.4668,3.28906 3.2891,3.28906 h 5.8691 c 1.8224,0 3.2891,-1.46674 3.2891,-3.28906 0,-1.82233 -1.4667,-3.28907 -3.2891,-3.28907 z m 16.2129,0 c -1.8224,0 -3.2891,1.46674 -3.2891,3.28907 0,1.82232 1.4667,3.28906 3.2891,3.28906 h 13.3222 c 1.8224,0 3.2891,-1.46674 3.2891,-3.28906 0,-1.82233 -1.4667,-3.28907 -3.2891,-3.28907 z m 23.666,0 c -1.8223,0 -3.2891,1.46674 -3.2891,3.28907 0,1.82232 1.4668,3.28906 3.2891,3.28906 h 23.8398 c 1.8224,0 3.291,-1.46674 3.291,-3.28906 0,-1.82233 -1.4686,-3.28907 -3.291,-3.28907 z m 34.1855,0 c -1.8223,0 -3.289,1.46674 -3.289,3.28907 0,1.82232 1.4667,3.28906 3.289,3.28906 h 5.8672 c 1.8224,0 3.2891,-1.46674 3.2891,-3.28906 0,-1.82233 -1.4667,-3.28907 -3.2891,-3.28907 z m 16.211,0 c -1.8224,0 -3.2891,1.46674 -3.2891,3.28907 0,1.82232 1.4667,3.28906 3.2891,3.28906 h 14.6113 v -6.57813 z m -187.209,10.50391 v 6.57813 h 12.9238 c 1.8223,0 3.2891,-1.46674 3.2891,-3.28907 0,-1.82233 -1.4668,-3.28906 -3.2891,-3.28906 z m 23.2676,0 c -1.8224,0 -3.2891,1.46673 -3.2891,3.28906 0,1.82233 1.4667,3.28906 3.2891,3.28907 h 5.8672 c 1.8223,0 3.289,-1.46674 3.289,-3.28907 0,-1.82233 -1.4667,-3.28906 -3.289,-3.28906 z m 16.2109,0 c -1.8223,0 -3.2891,1.46673 -3.2891,3.28906 0,1.82233 1.4668,3.28906 3.2891,3.28907 h 30.502 c 1.8223,0 3.291,-1.46674 3.291,-3.28907 0,-1.82233 -1.4687,-3.28906 -3.291,-3.28906 z m 40.8477,0 c -1.8224,0 -3.2891,1.46673 -3.2891,3.28906 0,1.82233 1.4667,3.28906 3.2891,3.28907 h 5.8671 c 1.8224,0 3.2891,-1.46674 3.2891,-3.28907 0,-1.82233 -1.4667,-3.28906 -3.2891,-3.28906 z m 16.2109,0 c -1.8223,0 -3.2891,1.46673 -3.2891,3.28906 0,1.82233 1.4668,3.28906 3.2891,3.28907 h 13.3223 c 1.8223,0 3.289,-1.46674 3.289,-3.28907 0,-1.82233 -1.4667,-3.28906 -3.289,-3.28906 z m 23.666,0 c -1.8223,0 -3.2891,1.46673 -3.2891,3.28906 0,1.82233 1.4668,3.28906 3.2891,3.28907 h 23.8418 c 1.8223,0 3.2891,-1.46674 3.2891,-3.28907 0,-1.82233 -1.4668,-3.28906 -3.2891,-3.28906 z m 34.1856,0 c -1.8224,0 -3.2891,1.46673 -3.2891,3.28906 0,1.82233 1.4667,3.28906 3.2891,3.28907 h 5.8671 c 1.8224,0 3.2911,-1.46674 3.2911,-3.28907 0,-1.82233 -1.4687,-3.28906 -3.2911,-3.28906 z m 16.2129,0 c -1.8225,0 -3.2891,1.46673 -3.2891,3.28906 0,1.82233 1.4667,3.28906 3.2891,3.28907 h 30.5019 c 0.2464,0 0.4862,-0.0273 0.7168,-0.0781 v -6.42187 c -0.2306,-0.0509 -0.4704,-0.0781 -0.7168,-0.0781 z m -170.6016,10.50391 v 6.58007 h 29.1348 c 1.8223,0 3.289,-1.46868 3.289,-3.29101 0,-1.82233 -1.4667,-3.28906 -3.289,-3.28906 z m 39.4785,0 c -1.8223,0 -3.2891,1.46673 -3.2891,3.28906 0,1.82233 1.4668,3.29101 3.2891,3.29101 h 5.8691 c 1.8224,0 3.2891,-1.46868 3.2891,-3.29101 0,-1.82233 -1.4667,-3.28906 -3.2891,-3.28906 z m 16.2129,0 c -1.8223,0 -3.2891,1.46673 -3.2891,3.28906 0,1.82233 1.4668,3.29101 3.2891,3.29101 h 13.3223 c 1.8223,0 3.289,-1.46868 3.289,-3.29101 0,-1.82233 -1.4667,-3.28906 -3.289,-3.28906 z m 23.666,0 c -1.8223,0 -3.2891,1.46673 -3.2891,3.28906 0,1.82233 1.4668,3.29101 3.2891,3.29101 h 23.8418 c 1.8223,0 3.2891,-1.46868 3.2891,-3.29101 0,-1.82233 -1.4668,-3.28906 -3.2891,-3.28906 z m 34.1856,0 c -1.8224,0 -3.2891,1.46673 -3.2891,3.28906 0,1.82233 1.4667,3.29101 3.2891,3.29101 h 5.8671 c 1.8224,0 3.2891,-1.46868 3.2891,-3.29101 0,-1.82233 -1.4667,-3.28906 -3.2891,-3.28906 z m 16.2128,0 c -1.8223,0 -3.291,1.46673 -3.291,3.28906 0,1.82233 1.4687,3.29101 3.291,3.29101 h 30.5 c 1.8224,0 3.2911,-1.46868 3.2911,-3.29101 0,-1.82233 -1.4687,-3.28906 -3.2911,-3.28906 z m 40.8458,0 c -1.8225,0 -3.2891,1.46673 -3.2891,3.28906 0,1.82233 1.4667,3.29101 3.2891,3.29101 h 5.8671 c 1.8224,0 3.2891,-1.46868 3.2891,-3.29101 0,-1.82233 -1.4667,-3.28906 -3.2891,-3.28906 z m 16.2109,0 c -1.8223,0 -3.2891,1.46673 -3.2891,3.28906 0,1.82233 1.4668,3.29101 3.2891,3.29101 h 13.3223 c 0.6169,0 1.1932,-0.1675 1.6855,-0.46093 v -5.65821 c -0.4923,-0.29314 -1.0686,-0.46093 -1.6855,-0.46093 z m -186.8125,10.5039 v 6.58008 h 12.9238 c 1.8223,0 3.2891,-1.46673 3.2891,-3.28906 0,-1.82233 -1.4668,-3.29102 -3.2891,-3.29102 z m 23.2676,0 c -1.8224,0 -3.2891,1.46869 -3.2891,3.29102 0,1.82233 1.4667,3.28906 3.2891,3.28906 h 5.8672 c 1.8223,0 3.289,-1.46673 3.289,-3.28906 0,-1.82233 -1.4667,-3.29102 -3.289,-3.29102 z m 16.2109,0 c -1.8223,0 -3.2891,1.46869 -3.2891,3.29102 0,1.82233 1.4668,3.28906 3.2891,3.28906 h 13.3223 c 1.8223,0 3.289,-1.46673 3.289,-3.28906 0,-1.82233 -1.4667,-3.29102 -3.289,-3.29102 z m 23.666,0 c -1.8223,0 -3.289,1.46869 -3.289,3.29102 0,1.82233 1.4667,3.28906 3.289,3.28906 h 23.8418 c 1.8223,0 3.2891,-1.46673 3.2891,-3.28906 0,-1.82233 -1.4668,-3.29102 -3.2891,-3.29102 z m 34.1856,0 c -1.8224,0 -3.2891,1.46869 -3.2891,3.29102 0,1.82233 1.4667,3.28906 3.2891,3.28906 h 5.8691 c 1.8223,0 3.2891,-1.46673 3.2891,-3.28906 0,-1.82233 -1.4668,-3.29102 -3.2891,-3.29102 z m 16.2129,0 c -1.8224,0 -3.2891,1.46869 -3.2891,3.29102 0,1.82233 1.4667,3.28906 3.2891,3.28906 h 30.5019 c 1.8223,0 3.2891,-1.46673 3.2891,-3.28906 0,-1.82233 -1.4668,-3.29102 -3.2891,-3.29102 z m 40.8457,0 c -1.8224,0 -3.2891,1.46869 -3.2891,3.29102 0,1.82233 1.4667,3.28906 3.2891,3.28906 h 5.8671 c 1.8224,0 3.2911,-1.46673 3.2911,-3.28906 0,-1.82233 -1.4687,-3.29102 -3.2911,-3.29102 z m 16.2129,0 c -1.8225,0 -3.2891,1.46869 -3.2891,3.29102 0,1.82233 1.4667,3.28906 3.2891,3.28906 h 13.3203 c 1.8223,0 3.289,-1.46673 3.289,-3.28906 0,-1.82233 -1.4667,-3.29102 -3.289,-3.29102 z m 23.666,0 c -1.8224,0 -3.291,1.46869 -3.291,3.29102 0,1.82233 1.4686,3.28906 3.291,3.28906 h 7.5527 v -6.58008 z m -194.2676,10.50586 v 6.57813 h 5.4687 c 1.8224,0 3.2891,-1.46674 3.2891,-3.28907 0,-1.82232 -1.4667,-3.28906 -3.2891,-3.28906 z m 15.8144,0 c -1.8223,0 -3.291,1.46674 -3.291,3.28906 0,1.82233 1.4687,3.28907 3.291,3.28907 h 13.3204 c 1.8223,0 3.289,-1.46674 3.289,-3.28907 0,-1.82232 -1.4667,-3.28906 -3.289,-3.28906 z m 23.6641,0 c -1.8223,0 -3.2891,1.46674 -3.2891,3.28906 0,1.82233 1.4668,3.28907 3.2891,3.28907 h 23.8418 c 1.8223,0 3.2891,-1.46674 3.2891,-3.28907 0,-1.82232 -1.4668,-3.28906 -3.2891,-3.28906 z m 34.1855,0 c -1.8222,0 -3.289,1.46674 -3.289,3.28906 0,1.82233 1.4668,3.28907 3.289,3.28907 h 5.8692 c 1.8223,0 3.2891,-1.46674 3.2891,-3.28907 0,-1.82232 -1.4668,-3.28906 -3.2891,-3.28906 z m 16.2129,0 c -1.8223,0 -3.289,1.46674 -3.289,3.28906 0,1.82233 1.4667,3.28907 3.289,3.28907 h 30.502 c 1.8223,0 3.2891,-1.46674 3.2891,-3.28907 0,-1.82232 -1.4668,-3.28906 -3.2891,-3.28906 z m 40.8457,0 c -1.8223,0 -3.289,1.46674 -3.289,3.28906 0,1.82233 1.4667,3.28907 3.289,3.28907 h 5.8692 c 1.8223,0 3.289,-1.46674 3.289,-3.28907 0,-1.82232 -1.4667,-3.28906 -3.289,-3.28906 z m 16.2129,0 c -1.8223,0 -3.289,1.46674 -3.289,3.28906 0,1.82233 1.4667,3.28907 3.289,3.28907 h 13.3203 c 1.8224,0 3.2911,-1.46674 3.2911,-3.28907 0,-1.82232 -1.4687,-3.28906 -3.2911,-3.28906 z m 23.6661,0 c -1.8225,0 -3.2891,1.46674 -3.2891,3.28906 0,1.82233 1.4667,3.28907 3.2891,3.28907 h 23.8398 c 1.8223,0 3.291,-1.46674 3.291,-3.28907 0,-1.82232 -1.4687,-3.28906 -3.291,-3.28906 z m 31.2187,1.86328 c -0.2067,0.43102 -0.3223,0.9141 -0.3223,1.42578 0,0.51169 0.1156,0.99477 0.3223,1.42579 z m -196.5254,8.64063 c -1.8223,0 -3.291,1.46673 -3.291,3.28906 0,1.82233 1.4687,3.28906 3.291,3.28906 h 23.8399 c 1.8223,0 3.289,-1.46673 3.289,-3.28906 0,-1.82233 -1.4667,-3.28906 -3.289,-3.28906 z m 34.1836,0 c -1.8223,0 -3.2891,1.46673 -3.2891,3.28906 0,1.82233 1.4668,3.28906 3.2891,3.28906 h 5.8691 c 1.8224,0 3.2891,-1.46673 3.2891,-3.28906 0,-1.82233 -1.4667,-3.28906 -3.2891,-3.28906 z m 16.2129,0 c -1.8223,0 -3.2891,1.46673 -3.2891,3.28906 0,1.82233 1.4668,3.28906 3.2891,3.28906 h 30.5019 c 1.8224,0 3.2891,-1.46673 3.2891,-3.28906 0,-1.82233 -1.4667,-3.28906 -3.2891,-3.28906 z m 40.8457,0 c -1.8223,0 -3.2891,1.46673 -3.2891,3.28906 0,1.82233 1.4668,3.28906 3.2891,3.28906 h 5.8691 c 1.8224,0 3.2891,-1.46673 3.2891,-3.28906 0,-1.82233 -1.4667,-3.28906 -3.2891,-3.28906 z m 16.2129,0 c -1.8223,0 -3.2891,1.46673 -3.2891,3.28906 0,1.82233 1.4668,3.28906 3.2891,3.28906 h 13.3223 c 1.8223,0 3.289,-1.46673 3.289,-3.28906 0,-1.82233 -1.4667,-3.28906 -3.289,-3.28906 z m 23.666,0 c -1.8223,0 -3.2891,1.46673 -3.2891,3.28906 0,1.82233 1.4668,3.28906 3.2891,3.28906 h 23.8398 c 1.8224,0 3.2911,-1.46673 3.2911,-3.28906 0,-1.82233 -1.4687,-3.28906 -3.2911,-3.28906 z m 34.1856,0 c -1.8225,0 -3.2891,1.46673 -3.2891,3.28906 0,1.82233 1.4667,3.28906 3.2891,3.28906 h 5.8671 c 1.8224,0 3.2891,-1.46673 3.2891,-3.28906 0,-1.82233 -1.4667,-3.28906 -3.2891,-3.28906 z m 16.2109,0 c -1.8223,0 -3.2891,1.46673 -3.2891,3.28906 0,1.82233 1.4668,3.28906 3.2891,3.28906 h 15.0078 v -6.57812 z m -186.8125,10.5039 v 6.57813 h 12.5273 c 1.8224,0 3.2891,-1.46673 3.2891,-3.28906 0,-1.82233 -1.4667,-3.28907 -3.2891,-3.28907 z m 22.8711,0 c -1.8223,0 -3.2891,1.46674 -3.2891,3.28907 0,1.82233 1.4668,3.28906 3.2891,3.28906 h 5.8672 c 1.8223,0 3.289,-1.46673 3.289,-3.28906 0,-1.82233 -1.4667,-3.28907 -3.289,-3.28907 z m 16.2129,0 c -1.8224,0 -3.291,1.46674 -3.291,3.28907 0,1.82233 1.4686,3.28906 3.291,3.28906 h 30.5 c 1.8223,0 3.291,-1.46673 3.291,-3.28906 0,-1.82233 -1.4687,-3.28907 -3.291,-3.28907 z m 40.8457,0 c -1.8224,0 -3.2891,1.46674 -3.2891,3.28907 0,1.82233 1.4667,3.28906 3.2891,3.28906 h 5.8672 c 1.8223,0 3.289,-1.46673 3.289,-3.28906 0,-1.82233 -1.4667,-3.28907 -3.289,-3.28907 z m 16.2109,0 c -1.8223,0 -3.2891,1.46674 -3.289,3.28907 0,1.82233 1.4667,3.28906 3.289,3.28906 h 13.3223 c 1.8223,0 3.289,-1.46673 3.289,-3.28906 0,-1.82233 -1.4667,-3.28907 -3.289,-3.28907 z m 23.666,0 c -1.8223,0 -3.289,1.46674 -3.289,3.28907 0,1.82233 1.4667,3.28906 3.289,3.28906 h 23.8418 c 1.8224,0 3.2891,-1.46673 3.2891,-3.28906 0,-1.82233 -1.4667,-3.28907 -3.2891,-3.28907 z m 34.1856,0 c -1.8224,0 -3.2891,1.46674 -3.2891,3.28907 0,1.82233 1.4667,3.28906 3.2891,3.28906 h 5.8672 c 1.8223,0 3.291,-1.46673 3.291,-3.28906 0,-1.82233 -1.4687,-3.28907 -3.291,-3.28907 z m 16.2129,0 c -1.8224,0 -3.2891,1.46674 -3.2891,3.28907 0,1.82233 1.4667,3.28906 3.2891,3.28906 h 30.5019 c 0.3912,0 0.7659,-0.0672 1.1133,-0.19141 v -6.19531 c -0.3474,-0.12417 -0.7221,-0.19141 -1.1133,-0.19141 z m -170.1993,10.50391 c 0.0427,2.24926 0.2859,4.44767 0.7129,6.57813 h 28.0196 c 1.8223,0 3.289,-1.46674 3.289,-3.28907 0,-1.82233 -1.4667,-3.28906 -3.289,-3.28906 z m 39.0782,0 c -1.8224,0 -3.291,1.46673 -3.291,3.28906 0,1.82233 1.4686,3.28907 3.291,3.28907 h 5.8672 c 1.8223,0 3.289,-1.46674 3.289,-3.28907 0,-1.82233 -1.4667,-3.28906 -3.289,-3.28906 z m 16.2109,0 c -1.8223,0 -3.2891,1.46673 -3.2891,3.28906 0,1.82233 1.4668,3.28907 3.2891,3.28907 h 13.3223 c 1.8223,0 3.289,-1.46674 3.289,-3.28907 0,-1.82233 -1.4667,-3.28906 -3.289,-3.28906 z m 23.666,0 c -1.8223,0 -3.289,1.46673 -3.289,3.28906 0,1.82233 1.4667,3.28907 3.289,3.28907 h 23.8418 c 1.8224,0 3.2891,-1.46674 3.2891,-3.28907 0,-1.82233 -1.4667,-3.28906 -3.2891,-3.28906 z m 34.1856,0 c -1.8224,0 -3.2891,1.46673 -3.2891,3.28906 0,1.82233 1.4667,3.28907 3.2891,3.28907 h 5.8672 c 1.8223,0 3.289,-1.46674 3.289,-3.28907 0,-1.82233 -1.4667,-3.28906 -3.289,-3.28906 z m 16.2129,0 c -1.8224,0 -3.2911,1.46673 -3.2911,3.28906 0,1.82233 1.4687,3.28907 3.2911,3.28907 h 30.5 c 1.8223,0 3.291,-1.46674 3.291,-3.28907 0,-1.82233 -1.4687,-3.28906 -3.291,-3.28906 z m 40.8457,0 c -1.8224,0 -3.2891,1.46673 -3.2891,3.28906 0,1.82233 1.4667,3.28907 3.2891,3.28907 h 5.8672 c 1.8223,0 3.289,-1.46674 3.289,-3.28907 0,-1.82233 -1.4667,-3.28906 -3.289,-3.28906 z m 16.2109,0 c -1.8223,0 -3.2891,1.46673 -3.2891,3.28906 0,1.82233 1.4668,3.28907 3.2891,3.28907 h 13.3223 c 0.5112,0 0.9951,-0.11596 1.4257,-0.32227 0.3446,-1.8022 0.5571,-3.6517 0.629,-5.53906 -0.5622,-0.44905 -1.2759,-0.7168 -2.0547,-0.7168 z m -184.6797,10.50391 c 0.7349,2.30187 1.6886,4.50344 2.8399,6.58007 h 7.9511 c 1.8224,1e-5 3.2891,-1.46868 3.2891,-3.29101 0,-1.82233 -1.4667,-3.28906 -3.2891,-3.28906 z m 21.1348,0 c -1.8223,0 -3.2891,1.46673 -3.2891,3.28906 0,1.82233 1.4668,3.29102 3.2891,3.29101 h 5.8672 c 1.8223,1e-5 3.289,-1.46868 3.289,-3.29101 0,-1.82233 -1.4667,-3.28906 -3.289,-3.28906 z m 16.2129,0 c -1.8224,0 -3.291,1.46673 -3.291,3.28906 0,1.82233 1.4686,3.29102 3.291,3.29101 h 13.3203 c 1.8223,1e-5 3.289,-1.46868 3.289,-3.29101 0,-1.82233 -1.4667,-3.28906 -3.289,-3.28906 z m 23.664,0 c -1.8223,0 -3.289,1.46673 -3.289,3.28906 0,1.82233 1.4667,3.29102 3.289,3.29101 h 23.8418 c 1.8224,1e-5 3.2891,-1.46868 3.2891,-3.29101 0,-1.82233 -1.4667,-3.28906 -3.2891,-3.28906 z m 34.1856,0 c -1.8223,0 -3.2891,1.46673 -3.2891,3.28906 0,1.82233 1.4668,3.29102 3.2891,3.29101 h 5.8691 c 1.8224,1e-5 3.2891,-1.46868 3.2891,-3.29101 0,-1.82233 -1.4667,-3.28906 -3.2891,-3.28906 z m 16.2129,0 c -1.8224,0 -3.2891,1.46673 -3.2891,3.28906 0,1.82233 1.4667,3.29102 3.2891,3.29101 h 30.5019 c 1.8224,1e-5 3.2891,-1.46868 3.2891,-3.29101 0,-1.82233 -1.4667,-3.28906 -3.2891,-3.28906 z m 40.8457,0 c -1.8224,0 -3.2891,1.46673 -3.2891,3.28906 0,1.82233 1.4667,3.29102 3.2891,3.29101 h 5.8672 c 1.8223,1e-5 3.291,-1.46868 3.291,-3.29101 0,-1.82233 -1.4687,-3.28906 -3.291,-3.28906 z m 16.2129,0 c -1.8224,0 -3.2891,1.46673 -3.2891,3.28906 0,1.82233 1.4667,3.29102 3.2891,3.29101 h 13.3203 c 1.8223,1e-5 3.291,-1.46868 3.291,-3.29101 0,-1.82233 -1.4687,-3.28906 -3.291,-3.28906 z m 23.666,0 c -1.8223,0 -3.2891,1.46673 -3.2891,3.28906 0,1.82233 1.4668,3.29102 3.2891,3.29101 h 3.3711 c 1.1513,-2.07663 2.1069,-4.2782 2.8418,-6.58007 z m -178.4531,10.5039 c -1.8224,0 -3.2891,1.46869 -3.2891,3.29102 0,1.82233 1.4667,3.28906 3.2891,3.28906 h 13.3203 c 1.8223,0 3.289,-1.46673 3.289,-3.28906 0,-1.82233 -1.4667,-3.29102 -3.289,-3.29102 z m 23.666,0 c -1.8224,0 -3.291,1.46869 -3.291,3.29102 0,1.82233 1.4686,3.28906 3.291,3.28906 h 23.8398 c 1.8223,0 3.2891,-1.46673 3.2891,-3.28906 0,-1.82233 -1.4668,-3.29102 -3.2891,-3.29102 z m 34.1836,0 c -1.8224,0 -3.2891,1.46869 -3.2891,3.29102 0,1.82233 1.4667,3.28906 3.2891,3.28906 h 5.8691 c 1.8223,0 3.2891,-1.46673 3.2891,-3.28906 0,-1.82233 -1.4668,-3.29102 -3.2891,-3.29102 z m 16.2129,0 c -1.8224,0 -3.2891,1.46869 -3.2891,3.29102 0,1.82233 1.4667,3.28906 3.2891,3.28906 h 30.5019 c 1.8223,0 3.2891,-1.46673 3.2891,-3.28906 0,-1.82233 -1.4668,-3.29102 -3.2891,-3.29102 z m 40.8457,0 c -1.8224,0 -3.2891,1.46869 -3.2891,3.29102 0,1.82233 1.4667,3.28906 3.2891,3.28906 h 5.8691 c 1.8223,0 3.2891,-1.46673 3.2891,-3.28906 0,-1.82233 -1.4668,-3.29102 -3.2891,-3.29102 z m 16.2128,0 c -1.8222,0 -3.289,1.46869 -3.289,3.29102 0,1.82233 1.4667,3.28906 3.289,3.28906 h 13.3204 c 1.8223,0 3.291,-1.46673 3.291,-3.28906 0,-1.82233 -1.4687,-3.29102 -3.291,-3.29102 z m 23.6661,0 c -1.8224,0 -3.2891,1.46869 -3.2891,3.29102 0,1.82233 1.4667,3.28906 3.2891,3.28906 h 18.2949 c 2.3181,-1.90957 4.3954,-4.10009 6.1816,-6.51953 -0.2059,-0.0401 -0.4188,-0.0606 -0.6367,-0.0606 z m -151.0586,10.50586 c 3.8843,2.10472 8.1957,3.52801 12.7773,4.11133 0.0671,-0.26259 0.1035,-0.53819 0.1035,-0.82226 0,-1.82233 -1.4667,-3.28907 -3.289,-3.28907 z m 19.9375,0 c -1.8224,0 -3.291,1.46673 -3.291,3.28907 0,0.39141 0.0669,0.76568 0.1914,1.11328 0.2168,0.004 0.4346,0.006 0.6523,0.006 h 11.4102 c 0.1256,-0.34918 0.1933,-0.72561 0.1933,-1.11914 0,-1.82233 -1.4667,-3.28907 -3.289,-3.28907 z m 16.2109,0 c -1.8223,0 -3.2891,1.46673 -3.2891,3.28907 0,0.39353 0.0678,0.76996 0.1934,1.11914 h 36.6934 c 0.1256,-0.34918 0.1933,-0.72561 0.1933,-1.11914 0,-1.82233 -1.4667,-3.28907 -3.289,-3.28907 z m 40.8457,0 c -1.8223,0 -3.2891,1.46673 -3.289,3.28907 0,0.39353 0.0677,0.76996 0.1933,1.11914 h 12.0606 c 0.1256,-0.34918 0.1933,-0.72561 0.1933,-1.11914 0,-1.82233 -1.4667,-3.28907 -3.289,-3.28907 z m 16.2129,0 c -1.8223,0 -3.2891,1.46673 -3.2891,3.28907 0,0.39353 0.0678,0.76996 0.1934,1.11914 h 19.5137 c 0.1256,-0.34918 0.1933,-0.72561 0.1933,-1.11914 0,-1.82233 -1.4667,-3.28907 -3.289,-3.28907 z m 23.666,0 c -1.8223,0 -3.289,1.46673 -3.289,3.28907 0,0.39353 0.0677,0.76996 0.1933,1.11914 h 30.0332 c 0.1258,-0.34918 0.1934,-0.72561 0.1934,-1.11914 0,-1.82233 -1.4687,-3.28907 -3.291,-3.28907 z m 34.1856,0 c -1.8224,0 -3.2891,1.46673 -3.2891,3.28907 0,0.37537 0.063,0.73482 0.1777,1.07031 4.1895,-0.21322 8.1888,-1.12242 11.8848,-2.61719 -0.5518,-1.03803 -1.6441,-1.74219 -2.9062,-1.74219 z" />
    <path
       id="rect3-8-7"
       style="fill:#8d5122;fill-opacity:1;stroke:#000000;stroke-width:1;stroke-miterlimit:10;stroke-dasharray:none;stroke-opacity:1"
       d="m 826.2528,325.16463 c -20.2975,0 -36.6367,16.34124 -36.6367,36.63868 v 13.64843 h 71.6816 v 0 h 52.7774 l -29.0352,-50.28711 z m 64.4668,0 29.0332,50.28711 v 0.002 l 26.3887,45.70312 42.4648,-73.54883 c -5.5254,-13.20837 -18.5499,-22.44336 -33.8086,-22.44336 z m 99.8867,28.81446 -41.625,72.0957 -1.4121,2.44531 -24.9766,43.26172 h 68.8438 V 361.80331 c 0,-2.6872 -0.286,-5.30445 -0.8301,-7.82422 z m -200.9902,26.39062 v 109.97852 c 0,2.68689 0.2861,5.30476 0.83,7.82422 l 41.625,-72.09766 16.4922,-28.56445 9.8965,-17.14063 z m 44.584,51.85156 -41.754,72.32032 c 5.5244,13.20896 18.5471,22.44336 33.8067,22.44336 h 62.6601 z m 31.3574,44.47852 29.0312,50.28516 h 60.209 c 20.2975,0 36.6387,-16.33928 36.6387,-36.63672 v -13.64844 z" />
    <rect
       style="fill:none;stroke:#000000;stroke-width:4;stroke-miterlimit:10;stroke-dasharray:none"
       id="rect3-6-4"
       width="201.82132"
       height="201.82132"
       x="789.6156"
       y="325.16412"
       rx="36.637978" />
  </g>
</svg>
